<svg xmlns="http://www.w3.org/2000/svg" viewBox="0 0 32 32" fill="none">
  <rect width="32" height="32" rx="8" fill="#25D366"/>
  <path d="M16 5C9.925 5 5 9.925 5 15.5c0 1.8.5 3.5 1.375 5L5 27l7-1.25A11.45 11.45 0 0016 27c6.075 0 11-4.925 11-11.5S22.075 5 16 5zm0 21a9.47 9.47 0 01-5.1-1.475L6.5 25.5l1.025-4.275A9.47 9.47 0 016.5 16.5C6.5 11.253 10.753 7 16 7s9.5 4.253 9.5 9.5S21.247 26 16 26zm5.2-6.825c-.285-.142-1.685-.832-1.945-.925-.26-.093-.45-.14-.638.142-.189.285-.732.925-.898 1.113-.165.188-.33.212-.615.07-.285-.14-1.203-.443-2.29-1.412-.846-.754-1.416-1.685-1.582-1.97-.165-.285-.018-.44.125-.58.128-.128.285-.33.428-.495.142-.165.189-.285.285-.475.093-.188.047-.353-.024-.495-.07-.142-.638-1.537-.875-2.104-.23-.553-.463-.478-.638-.486a12.3 12.3 0 00-.545-.01.904.904 0 00-.675.314 2.748 2.748 0 00-1.038 2.045c0 1.207.88 2.375.998 2.54.12.165 1.73 2.64 4.19 3.703.585.253 1.042.404 1.398.517.588.188 1.123.161 1.545.098.47-.07 1.685-.69 1.923-1.355.238-.666.238-1.235.165-1.355-.07-.12-.26-.189-.545-.33z" fill="white"/>
</svg>